<svg xmlns="http://www.w3.org/2000/svg">
  <symbol  id="link" fill="currentColor" class="bi bi-pause-btn" viewBox="0 0 16 16">
    <path fill-rule="evenodd"
      d="M15 2a1 1 0 0 0-1-1H2a1 1 0 0 0-1 1v12a1 1 0 0 0 1 1h12a1 1 0 0 0 1-1V2zM0 2a2 2 0 0 1 2-2h12a2 2 0 0 1 2 2v12a2 2 0 0 1-2 2H2a2 2 0 0 1-2-2V2zm5.854 8.803a.5.5 0 1 1-.708-.707L9.243 6H6.475a.5.5 0 1 1 0-1h3.975a.5.5 0 0 1 .5.5v3.975a.5.5 0 1 1-1 0V6.707l-4.096 4.096z" />
  </symbol>

  <symbol id="export" class="bi bi-box-arrow-in-down" viewBox="0 0 16 16" fill="currentColor">
    <path fill-rule="evenodd" d="M4.646 8.146a.5.5 0 0 1 .708 0L8 10.793l2.646-2.647a.5.5 0 0 1 .708.708l-3 3a.5.5 0 0 1-.708 0l-3-3a.5.5 0 0 1 0-.708z"/>
    <path fill-rule="evenodd" d="M8 1a.5.5 0 0 1 .5.5v9a.5.5 0 0 1-1 0v-9A.5.5 0 0 1 8 1z"/>
    <path fill-rule="evenodd" d="M1.5 13.5A1.5 1.5 0 0 0 3 15h10a1.5 1.5 0 0 0 1.5-1.5v-8A1.5 1.5 0 0 0 13 4h-1.5a.5.5 0 0 0 0 1H13a.5.5 0 0 1 .5.5v8a.5.5 0 0 1-.5.5H3a.5.5 0 0 1-.5-.5v-8A.5.5 0 0 1 3 5h1.5a.5.5 0 0 0 0-1H3a1.5 1.5 0 0 0-1.5 1.5v8z"/>
  </symbol>

  <symbol id="share" viewBox="0 0 16 16" class="bi bi-box-arrow-up" fill="currentColor" xmlns="http://www.w3.org/2000/svg">
    <path fill-rule="evenodd" d="M3.5 6a.5.5 0 0 0-.5.5v8a.5.5 0 0 0 .5.5h9a.5.5 0 0 0 .5-.5v-8a.5.5 0 0 0-.5-.5h-2a.5.5 0 0 1 0-1h2A1.5 1.5 0 0 1 14 6.5v8a1.5 1.5 0 0 1-1.5 1.5h-9A1.5 1.5 0 0 1 2 14.5v-8A1.5 1.5 0 0 1 3.5 5h2a.5.5 0 0 1 0 1h-2z"/>
    <path fill-rule="evenodd" d="M7.646.146a.5.5 0 0 1 .708 0l3 3a.5.5 0 0 1-.708.708L8.5 1.707V10.5a.5.5 0 0 1-1 0V1.707L5.354 3.854a.5.5 0 1 1-.708-.708l3-3z"/>
  </symbol>

  <symbol id="share" class="bi bi-box-arrow-in-down" viewBox="0 0 16 16" fill="currentColor">
    <path fill-rule="evenodd" d="M4.646 8.146a.5.5 0 0 1 .708 0L8 10.793l2.646-2.647a.5.5 0 0 1 .708.708l-3 3a.5.5 0 0 1-.708 0l-3-3a.5.5 0 0 1 0-.708z"/>
    <path fill-rule="evenodd" d="M8 1a.5.5 0 0 1 .5.5v9a.5.5 0 0 1-1 0v-9A.5.5 0 0 1 8 1z"/>
    <path fill-rule="evenodd" d="M1.5 13.5A1.5 1.5 0 0 0 3 15h10a1.5 1.5 0 0 0 1.5-1.5v-8A1.5 1.5 0 0 0 13 4h-1.5a.5.5 0 0 0 0 1H13a.5.5 0 0 1 .5.5v8a.5.5 0 0 1-.5.5H3a.5.5 0 0 1-.5-.5v-8A.5.5 0 0 1 3 5h1.5a.5.5 0 0 0 0-1H3a1.5 1.5 0 0 0-1.5 1.5v8z"/>
  </symbol>


  <symbol id="x" viewBox="0 0 16 16" class="bi bi-x" fill="currentColor">
    <path fill-rule="evenodd" d="M11.854 4.146a.5.5 0 0 1 0 .708l-7 7a.5.5 0 0 1-.708-.708l7-7a.5.5 0 0 1 .708 0z"/>
    <path fill-rule="evenodd" d="M4.146 4.146a.5.5 0 0 0 0 .708l7 7a.5.5 0 0 0 .708-.708l-7-7a.5.5 0 0 0-.708 0z"/>
  </symbol>

  <symbol id="like_filled" viewBox="0 0 16 16" class="bi bi-heart-fill" fill="currentColor">
    <path fill-rule="evenodd" d="M8 1.314C12.438-3.248 23.534 4.735 8 15-7.534 4.736 3.562-3.248 8 1.314z"/>
  </symbol>

  <symbol id="like_empty" viewBox="0 0 16 16" class="bi bi-heart" fill="currentColor">
    <path fill-rule="evenodd" d="M8 2.748l-.717-.737C5.6.281 2.514.878 1.4 3.053c-.523 1.023-.641 2.5.314 4.385.92 1.815 2.834 3.989 6.286 6.357 3.452-2.368 5.365-4.542 6.286-6.357.955-1.886.838-3.362.314-4.385C13.486.878 10.4.28 8.717 2.01L8 2.748zM8 15C-7.333 4.868 3.279-3.04 7.824 1.143c.06.055.119.112.176.171a3.12 3.12 0 0 1 .176-.17C12.72-3.042 23.333 4.867 8 15z"/>
  </symbol>

</svg>


